HIERARCHY
ROOT Hips
{
	OFFSET 0.000000 0.000000 0.000000
	CHANNELS 6 Xposition Yposition Zposition Zrotation Yrotation Xrotation 
	JOINT LHipJoint
	{
		OFFSET 0.000000 0.000000 0.000000
		CHANNELS 3 Zrotation Yrotation Xrotation
		JOINT LeftUpLeg
		{
			OFFSET 1.363060 -1.794630 0.839290
			CHANNELS 3 Zrotation Yrotation Xrotation
			JOINT LeftLeg
			{
				OFFSET 2.448110 -6.726130 0.000000
				CHANNELS 3 Zrotation Yrotation Xrotation
				JOINT LeftFoot
				{
					OFFSET 2.562200 -7.039590 0.000000
					CHANNELS 3 Zrotation Yrotation Xrotation
					JOINT LeftToeBase
					{
						OFFSET 0.157640 -0.433110 2.322550
						CHANNELS 3 Zrotation Yrotation Xrotation
						End Site
						{
							OFFSET 0.000000 0.000000 0.000000
						}
					}
				}
			}
		}
	}
	JOINT RHipJoint
	{
		OFFSET 0.000000 0.000000 0.000000
		CHANNELS 3 Zrotation Yrotation Xrotation
		JOINT RightUpLeg
		{
			OFFSET -1.305520 -1.794630 0.839290
			CHANNELS 3 Zrotation Yrotation Xrotation
			JOINT RightLeg
			{
				OFFSET -2.542530 -6.985550 0.000000
				CHANNELS 3 Zrotation Yrotation Xrotation
				JOINT RightFoot
				{
					OFFSET -2.568260 -7.056230 0.000000
					CHANNELS 3 Zrotation Yrotation Xrotation
					JOINT RightToeBase
					{
						OFFSET -0.164730 -0.452590 2.363150
						CHANNELS 3 Zrotation Yrotation Xrotation
						End Site
						{
							OFFSET 0.000000 0.000000 0.000000
						}
					}
				}
			}
		}
	}
}
MOTION
Frames: 13
Frame Time: 0.008333
-11.370733 17.092268 -2.135023 -46.620025 89.498806 -29.932690 -8.940220 0.514654 3.915681 -7.288573 -5.179827 -38.877860 -2.386990 -0.244166 14.620148 0.423884 1.856475 -0.985148 0.523800 0.000000 -33.157000 10.442310 -3.048630 -0.948776 12.091176 -6.012485 -11.721797 0.764017 -2.488858 37.132236 -0.212848 0.324847 4.339146 -0.098700 0.000000 -73.940300
-11.137472 17.082173 -2.103425 120.877763 89.710836 137.242730 -8.984771 0.504201 3.839965 -7.840023 -5.368346 -38.107076 -2.356267 -0.164066 15.775259 0.437754 2.081572 -0.747794 0.559699 0.000000 -32.773200 10.723714 -3.110895 -1.119184 11.388767 -7.185488 -13.602545 0.372133 -2.833346 41.338056 -0.421612 -0.608335 6.535195 -0.236500 -0.000000 -74.372300
-10.906957 17.071540 -2.068205 112.764986 89.040920 128.848259 -9.013948 0.571126 3.757984 -8.459063 -5.406360 -37.382996 -2.335145 -0.065681 16.892650 0.464386 2.330993 -0.605725 0.591499 0.000000 -32.312200 10.970522 -3.029449 -1.266044 10.683313 -8.086694 -15.537712 -0.019379 -3.089017 45.437697 -0.675850 -1.841198 8.406060 -0.503100 0.000000 -73.026499
-10.679576 17.061378 -2.029852 106.576409 88.430940 122.420835 -9.012941 0.671702 3.653486 -9.118846 -5.291525 -36.679495 -2.331605 0.028544 17.917395 0.492402 2.556670 -0.574009 0.613100 0.000000 -31.904000 11.203126 -2.860607 -1.374399 10.030967 -8.708503 -17.525191 -0.376427 -3.289375 49.342533 -0.957442 -3.320558 9.809493 -0.895800 -0.000000 -70.353900
-10.455639 17.052721 -1.988344 100.972265 87.842337 116.618495 -8.983640 0.785569 3.521789 -9.818024 -5.044154 -35.956589 -2.349690 0.106816 18.784682 0.519753 2.757372 -0.662821 0.623500 0.000000 -31.647300 11.422726 -2.634481 -1.444745 9.423477 -9.067244 -19.560630 -0.687348 -3.458692 52.997797 -1.243736 -4.938416 10.640440 -1.369700 -0.000000 -66.827500
-10.235085 17.046519 -1.945439 95.787068 87.305599 111.281411 -8.942076 0.898439 3.362778 -10.496265 -4.644684 -35.230490 -2.385665 0.166876 19.494399 0.542174 2.899288 -0.892785 0.615800 0.000001 -31.622000 11.614746 -2.378868 -1.467544 8.925532 -9.143335 -21.638340 -0.952208 -3.609727 56.337195 -1.519074 -6.608598 10.885802 -1.868300 -0.000001 -63.079299
-10.017881 17.043511 -1.901167 90.525263 86.793224 105.906464 -8.889551 1.005347 3.178172 -11.153323 -4.133689 -34.460152 -2.438330 0.204633 20.010630 0.563369 3.012192 -1.254193 0.594000 -0.000000 -31.844700 11.782242 -2.105273 -1.448439 8.502971 -8.968212 -23.744741 -1.175813 -3.751751 59.321698 -1.767240 -8.196906 10.552501 -2.309400 -0.000001 -59.405000
-9.803607 17.044209 -1.857452 85.208791 86.331349 100.515799 -8.844706 1.096370 2.971503 -11.730790 -3.510708 -33.660992 -2.499398 0.221946 20.361499 0.582245 3.083150 -1.743029 0.555800 0.000000 -32.313200 11.909429 -1.833442 -1.383224 8.202801 -8.543085 -25.864053 -1.360705 -3.885891 61.898018 -1.978738 -9.609276 9.703812 -2.631900 0.000000 -55.987700
-9.591901 17.048824 -1.814478 79.698107 85.893218 94.957734 -8.807329 1.171565 2.747424 -12.228238 -2.826277 -32.793909 -2.564292 0.218192 20.531996 0.604246 3.155137 -2.326076 0.508500 0.000000 -32.974400 11.999780 -1.567389 -1.280549 7.985696 -7.911291 -27.965816 -1.507734 -4.011398 64.028751 -2.142972 -10.734133 8.411633 -2.782900 0.000000 -52.830400
-9.382082 17.057369 -1.773756 74.044574 85.489986 89.280045 -8.792558 1.225565 2.512389 -12.604718 -2.097408 -31.868159 -2.624072 0.196824 20.554039 0.630214 3.234488 -2.977388 0.453500 0.000000 -33.766200 12.040028 -1.320080 -1.142366 7.875335 -7.097027 -30.021814 -1.612885 -4.123164 65.668459 -2.253917 -11.506287 6.780262 -2.749999 0.000000 -49.870401
-9.173511 17.069542 -1.735830 68.282274 85.105975 83.507253 -8.803044 1.260008 2.273159 -12.855307 -1.362840 -30.866997 -2.673063 0.160278 20.434627 0.663617 3.353178 -3.656966 0.395900 0.000000 -34.604800 12.028925 -1.094953 -0.977344 7.851995 -6.147741 -31.996791 -1.670729 -4.215914 66.783155 -2.306561 -11.875864 4.926562 -2.548500 -0.000000 -47.034700
-8.965385 17.084854 -1.701198 62.497355 84.734044 77.720357 -8.842464 1.277261 2.037697 -12.974226 -0.650636 -29.792055 -2.706283 0.112262 20.192013 0.706088 3.530633 -4.329420 0.338700 0.000000 -35.409600 11.963377 -0.895451 -0.792407 7.910274 -5.109573 -33.861723 -1.675480 -4.283509 67.345087 -2.300541 -11.836395 2.987387 -2.226200 0.000000 -44.306300
-8.757056 17.102639 -1.669845 56.815823 84.361627 72.037577 -8.907398 1.282971 1.810980 -12.974361 0.015327 -28.635879 -2.721845 0.056109 19.833204 0.758673 3.784969 -4.959039 0.284400 -0.000000 -36.112800 11.847489 -0.720245 -0.597589 8.032616 -4.037350 -35.586335 -1.623872 -4.321253 67.338670 -2.239976 -11.418436 1.108247 -1.847201 0.000000 -41.757300
